<svg width="88" height="64" viewBox="0 0 88 64" fill="none" xmlns="http://www.w3.org/2000/svg">
<path d="M0 64V49.1313H8.33882C12.2888 49.1313 15.2147 48.1257 17.1165 46.1145C19.1647 44.1033 20.1887 41.2301 20.1887 37.4949V28.8754H6.80272V0H36.6469V37.9259C36.6469 46.1145 34.3794 52.5073 29.8442 57.1044C25.3091 61.7015 18.7258 64 10.0944 64H0ZM51.353 64V49.1313H59.6919C63.6418 49.1313 66.5677 48.1257 68.4696 46.1145C70.5177 44.1033 71.5418 41.2301 71.5418 37.4949V28.8754H58.1558V0H88V37.9259C88 46.1145 85.7324 52.5073 81.1973 57.1044C76.6621 61.7015 70.0788 64 61.4474 64H51.353Z" fill="#E9E9E9"/>
</svg>
