<svg version="1.1" id="Layer_1" xmlns="http://www.w3.org/2000/svg" xmlns:xlink="http://www.w3.org/1999/xlink" x="0px" y="0px"
	 width="100%" viewBox="0 0 802 802" enable-background="new 0 0 802 802" xml:space="preserve">
<path fill="#FFFFFF" opacity="1.000000" stroke="none" 
	d="
M516.000000,803.000000 
	C344.000000,803.000000 172.500000,803.000000 1.000000,803.000000 
	C1.000000,535.666687 1.000000,268.333344 1.000000,1.000000 
	C268.333344,1.000000 535.666687,1.000000 803.000000,1.000000 
	C803.000000,268.333344 803.000000,535.666687 803.000000,803.000000 
	C707.500000,803.000000 612.000000,803.000000 516.000000,803.000000 
M758.999939,560.500000 
	C758.666626,536.750977 758.179565,513.002625 758.076477,489.252563 
	C758.035950,479.901093 753.498657,472.707581 746.379883,468.355743 
	C718.548950,451.342163 690.226807,435.133148 662.115784,418.576538 
	C645.629150,408.866425 629.009766,399.362610 612.801208,389.205780 
	C600.786865,381.677185 589.905457,379.702179 577.218262,388.694244 
	C564.417236,397.766876 550.243469,404.915955 536.596558,412.778198 
	C520.445190,422.083313 504.194427,431.215668 488.023010,440.486084 
	C472.684326,449.279144 457.543671,458.431305 442.023346,466.888672 
	C432.686157,471.976654 427.679871,478.877075 427.939392,489.752869 
	C428.474152,512.164307 428.857788,534.583252 428.929810,557.000366 
	C428.974518,570.916504 428.165436,584.833313 428.041229,598.752563 
	C427.874756,617.415283 428.273712,636.086060 427.900330,654.742737 
	C427.665466,666.479553 433.090179,673.941772 443.135956,679.056824 
	C455.885223,685.548279 468.541809,692.229187 481.124847,699.038208 
	C507.848480,713.499023 534.489746,728.112000 561.184143,742.626953 
	C569.653015,747.231873 578.444336,751.308105 586.588684,756.421631 
	C591.546509,759.534363 595.702820,759.758484 600.620422,757.079041 
	C612.468262,750.623291 624.466858,744.443298 636.291687,737.946411 
	C658.978149,725.481934 681.558105,712.823975 704.236633,700.345154 
	C719.155762,692.135925 734.357605,684.420654 749.052490,675.833313 
	C755.210876,672.234497 759.180603,666.636658 759.111938,658.486145 
	C758.839661,626.159363 759.000000,593.829041 758.999939,560.500000 
M573.979309,159.014160 
	C572.192810,149.491104 566.765930,142.762543 558.413269,138.011414 
	C539.701538,127.367920 521.020020,116.667854 502.447266,105.784325 
	C474.846313,89.610336 447.113495,73.637947 419.955139,56.746422 
	C411.945221,51.764534 406.892456,50.955212 398.420593,56.663139 
	C380.329620,68.851952 360.901489,79.063477 341.967133,89.991425 
	C313.573212,106.378906 285.178101,122.765343 256.686859,138.982498 
	C247.173370,144.397522 242.711334,151.655533 242.800812,163.135162 
	C243.239807,219.459641 242.952667,275.789551 243.125580,332.116882 
	C243.135254,335.270691 244.603531,338.590668 246.015488,341.534729 
	C249.143555,348.057098 255.998764,350.038544 261.700104,353.130646 
	C287.989319,367.388489 314.436035,381.356506 340.853851,395.376495 
	C359.175873,405.100006 377.491669,414.838440 395.940277,424.317139 
	C398.982178,425.880066 402.651184,426.427826 406.105194,426.942841 
	C414.623718,428.213013 421.764679,424.801727 429.036652,420.650177 
	C443.550690,412.364166 458.509247,404.858856 473.251831,396.970551 
	C501.461121,381.876617 529.541260,366.536285 557.897522,351.724365 
	C568.853455,346.001495 574.693726,338.122559 574.084656,325.423706 
	C573.386047,310.856750 573.007446,296.257568 573.062988,281.674591 
	C573.211182,242.758423 573.667236,203.843430 573.998169,164.927948 
	C574.012329,163.261566 573.999084,161.594955 573.979309,159.014160 
M355.372711,682.966187 
	C359.308228,680.764832 363.100189,678.238281 367.207336,676.425903 
	C377.674408,671.806946 382.476410,663.963867 382.031250,652.584961 
	C381.558716,640.505859 381.078461,628.417725 381.045837,616.332397 
	C380.928925,573.004150 381.055725,529.675293 380.953979,486.346954 
	C380.933075,477.444794 376.976196,470.525940 369.110596,465.995056 
	C363.679108,462.866333 358.313019,459.623993 352.921570,456.425903 
	C331.629486,443.795929 310.350067,431.144501 289.044373,418.537506 
	C270.367157,407.485809 251.668793,396.469849 232.964325,385.464355 
	C224.419922,380.436951 215.820374,377.235809 206.096878,382.943878 
	C183.645081,396.123901 161.021667,409.011261 138.539642,422.140259 
	C115.352180,435.681274 92.360786,449.561707 69.062782,462.908173 
	C57.555546,469.500214 51.646290,478.329987 51.842129,492.069977 
	C52.324276,525.897156 52.116962,559.736389 51.956520,593.569702 
	C51.858906,614.154419 51.260635,634.736328 51.037861,655.321167 
	C50.955475,662.933655 53.616493,669.330322 60.650475,673.202576 
	C71.493347,679.171631 82.327713,685.158081 93.236526,691.005066 
	C119.171074,704.905640 145.169708,718.686768 171.094925,732.604614 
	C181.012466,737.928772 190.855988,743.396912 200.631897,748.976990 
	C210.372086,754.536560 220.297333,756.417480 230.573273,750.759766 
	C256.203827,736.648071 281.719879,722.328003 307.377747,708.266418 
	C323.029480,699.688721 338.858795,691.435059 355.372711,682.966187 
z"/>
<path fill="#000000" opacity="1.000000" stroke="none" 
	d="
M759.000000,561.000000 
	C759.000000,593.829041 758.839661,626.159363 759.111938,658.486145 
	C759.180603,666.636658 755.210876,672.234497 749.052490,675.833313 
	C734.357605,684.420654 719.155762,692.135925 704.236633,700.345154 
	C681.558105,712.823975 658.978149,725.481934 636.291687,737.946411 
	C624.466858,744.443298 612.468262,750.623291 600.620422,757.079041 
	C595.702820,759.758484 591.546509,759.534363 586.588684,756.421631 
	C578.444336,751.308105 569.653015,747.231873 561.184143,742.626953 
	C534.489746,728.112000 507.848480,713.499023 481.124847,699.038208 
	C468.541809,692.229187 455.885223,685.548279 443.135956,679.056824 
	C433.090179,673.941772 427.665466,666.479553 427.900330,654.742737 
	C428.273712,636.086060 427.874756,617.415283 428.041229,598.752563 
	C428.165436,584.833313 428.974518,570.916504 428.929810,557.000366 
	C428.857788,534.583252 428.474152,512.164307 427.939392,489.752869 
	C427.679871,478.877075 432.686157,471.976654 442.023346,466.888672 
	C457.543671,458.431305 472.684326,449.279144 488.023010,440.486084 
	C504.194427,431.215668 520.445190,422.083313 536.596558,412.778198 
	C550.243469,404.915955 564.417236,397.766876 577.218262,388.694244 
	C589.905457,379.702179 600.786865,381.677185 612.801208,389.205780 
	C629.009766,399.362610 645.629150,408.866425 662.115784,418.576538 
	C690.226807,435.133148 718.548950,451.342163 746.379883,468.355743 
	C753.498657,472.707581 758.035950,479.901093 758.076477,489.252563 
	C758.179565,513.002625 758.666626,536.750977 759.000000,561.000000 
z"/>
<path fill="#000000" opacity="1.000000" stroke="none" 
	d="
M573.989014,159.471313 
	C573.999084,161.594955 574.012329,163.261566 573.998169,164.927948 
	C573.667236,203.843430 573.211182,242.758423 573.062988,281.674591 
	C573.007446,296.257568 573.386047,310.856750 574.084656,325.423706 
	C574.693726,338.122559 568.853455,346.001495 557.897522,351.724365 
	C529.541260,366.536285 501.461121,381.876617 473.251831,396.970551 
	C458.509247,404.858856 443.550690,412.364166 429.036652,420.650177 
	C421.764679,424.801727 414.623718,428.213013 406.105194,426.942841 
	C402.651184,426.427826 398.982178,425.880066 395.940277,424.317139 
	C377.491669,414.838440 359.175873,405.100006 340.853851,395.376495 
	C314.436035,381.356506 287.989319,367.388489 261.700104,353.130646 
	C255.998764,350.038544 249.143555,348.057098 246.015488,341.534729 
	C244.603531,338.590668 243.135254,335.270691 243.125580,332.116882 
	C242.952667,275.789551 243.239807,219.459641 242.800812,163.135162 
	C242.711334,151.655533 247.173370,144.397522 256.686859,138.982498 
	C285.178101,122.765343 313.573212,106.378906 341.967133,89.991425 
	C360.901489,79.063477 380.329620,68.851952 398.420593,56.663139 
	C406.892456,50.955212 411.945221,51.764534 419.955139,56.746422 
	C447.113495,73.637947 474.846313,89.610336 502.447266,105.784325 
	C521.020020,116.667854 539.701538,127.367920 558.413269,138.011414 
	C566.765930,142.762543 572.192810,149.491104 573.989014,159.471313 
z"/>
<path fill="#000000" opacity="1.000000" stroke="none" 
	d="
M354.990540,683.000977 
	C338.858795,691.435059 323.029480,699.688721 307.377747,708.266418 
	C281.719879,722.328003 256.203827,736.648071 230.573273,750.759766 
	C220.297333,756.417480 210.372086,754.536560 200.631897,748.976990 
	C190.855988,743.396912 181.012466,737.928772 171.094925,732.604614 
	C145.169708,718.686768 119.171074,704.905640 93.236526,691.005066 
	C82.327713,685.158081 71.493347,679.171631 60.650475,673.202576 
	C53.616493,669.330322 50.955475,662.933655 51.037861,655.321167 
	C51.260635,634.736328 51.858906,614.154419 51.956520,593.569702 
	C52.116962,559.736389 52.324276,525.897156 51.842129,492.069977 
	C51.646290,478.329987 57.555546,469.500214 69.062782,462.908173 
	C92.360786,449.561707 115.352180,435.681274 138.539642,422.140259 
	C161.021667,409.011261 183.645081,396.123901 206.096878,382.943878 
	C215.820374,377.235809 224.419922,380.436951 232.964325,385.464355 
	C251.668793,396.469849 270.367157,407.485809 289.044373,418.537506 
	C310.350067,431.144501 331.629486,443.795929 352.921570,456.425903 
	C358.313019,459.623993 363.679108,462.866333 369.110596,465.995056 
	C376.976196,470.525940 380.933075,477.444794 380.953979,486.346954 
	C381.055725,529.675293 380.928925,573.004150 381.045837,616.332397 
	C381.078461,628.417725 381.558716,640.505859 382.031250,652.584961 
	C382.476410,663.963867 377.674408,671.806946 367.207336,676.425903 
	C363.100189,678.238281 359.308228,680.764832 354.990540,683.000977 
z"/>
</svg>