<svg width="88" height="63" viewBox="0 0 88 63" fill="none" xmlns="http://www.w3.org/2000/svg">
<path d="M0 63V25.6667C0 17.6061 2.26909 11.3131 6.80727 6.78787C11.3454 2.26262 17.9331 0 26.5703 0H36.6714V14.6364H28.327C24.5208 14.6364 21.593 15.6263 19.5435 17.6061C17.494 19.5859 16.4692 22.4141 16.4692 26.0909V34.3636H29.8642V63H0ZM51.3286 63V25.6667C51.3286 17.6061 53.5977 11.3131 58.1358 6.78787C62.674 2.26262 69.2617 0 77.8989 0H88V14.6364H79.6556C75.8494 14.6364 72.9215 15.6263 70.872 17.6061C68.8225 19.5859 67.7978 22.4141 67.7978 26.0909V34.3636H81.1927V63H51.3286Z" fill="#E9E9E9"/>
</svg>
